<svg width="364" height="512" viewBox="0 0 364 512" fill="none" xmlns="http://www.w3.org/2000/svg">
<path d="M33.6441 470.877L0.633057 100.62H363.367L330.321 470.819L181.778 512L33.6441 470.877Z" fill="#E44D26"/>
<path d="M182 480.523L302.03 447.246L330.27 130.894H182V480.523Z" fill="#F16529"/>
<path d="M182 268.217H121.91L117.76 221.716H182V176.305H181.843H68.1321L69.2191 188.488L80.3801 313.627H182V268.217Z" fill="#EBEBEB"/>
<path d="M182 386.153L181.801 386.206L131.227 372.55L127.994 336.333H103.419H82.4089L88.7709 407.634L181.791 433.457L182 433.399V386.153Z" fill="#EBEBEB"/>
<path d="M34.3821 0H57.4591V22.8H78.5691V0H101.647V69.044H78.5701V45.924H57.4601V69.044H34.3831V0H34.3821Z" fill="black"/>
<path d="M131.994 22.896H111.678V0H175.398V22.896H155.073V69.044H131.995V22.896H131.994Z" fill="black"/>
<path d="M185.511 0H209.574L224.376 24.26L239.163 0H263.235V69.044H240.253V34.822L224.376 59.371H223.979L208.091 34.822V69.044H185.511V0V0Z" fill="black"/>
<path d="M274.72 0H297.804V46.222H330.257V69.044H274.72V0Z" fill="black"/>
<path d="M181.843 268.217V313.627H237.761L232.49 372.521L181.843 386.191V433.435L274.937 407.634L275.62 399.962L286.291 280.411L287.399 268.217H275.162H181.843Z" fill="white"/>
<path d="M181.843 176.305V204.509V221.605V221.716H291.385H291.531L292.442 211.509L294.511 188.488L295.597 176.305H181.843Z" fill="white"/>
</svg>
